<?xml version="1.0" encoding="UTF-8"?>
<svg xmlns="http://www.w3.org/2000/svg" xmlns:xlink="http://www.w3.org/1999/xlink" width="200px" height="px" viewBox="0 0 199 123" version="1.1">
<g id="surface1">
<path style=" stroke:none;fill-rule:nonzero;fill:rgb(1.960784%,8.627451%,30.196078%);fill-opacity:1;" d="M 180.441406 83.085938 C 180.441406 83.085938 158.363281 88.042969 146.847656 89.660156 C 140.945312 90.519531 132.953125 91.1875 126.480469 91.566406 C 142.945312 82.703125 152.9375 67.457031 152.9375 50.875 C 152.9375 27.90625 133.808594 8.75 108.207031 3.792969 C 108.777344 4.746094 109.351562 5.699219 109.921875 6.75 C 110.140625 7.183594 110.394531 7.597656 110.683594 7.988281 C 128.734375 14.703125 140.699219 31.96875 140.660156 51.253906 C 140.722656 61.265625 137.476562 71.015625 131.429688 78.988281 C 127.230469 84.570312 121.832031 89.128906 115.632812 92.332031 L 115.726562 92.425781 C 116.488281 93.09375 117.25 93.761719 118.105469 94.425781 L 119.246094 95.378906 L 172.828125 95.378906 Z M 180.441406 83.085938 "/>
<path style=" stroke:none;fill-rule:nonzero;fill:rgb(1.960784%,8.627451%,30.196078%);fill-opacity:1;" d="M 21.222656 101.859375 C 16.558594 101.828125 11.921875 102.601562 7.519531 104.148438 C 2.664062 105.957031 0 108.816406 0 112.25 C 0 119.875 12.46875 122.730469 21.03125 122.730469 L 21.414062 122.730469 C 26.148438 122.769531 30.855469 121.960938 35.308594 120.351562 C 39.972656 118.445312 42.351562 115.679688 42.351562 112.25 C 42.351562 104.054688 29.027344 101.859375 21.222656 101.859375 Z M 21.128906 120.0625 C 16.371094 120.0625 9.136719 117.871094 9.136719 112.152344 C 9.136719 106.433594 16.273438 104.433594 21.128906 104.433594 C 25.503906 104.433594 33.023438 106.054688 33.023438 112.152344 C 33.117188 115.109375 30.550781 119.96875 21.128906 120.0625 Z M 21.128906 120.0625 "/>
<path style=" stroke:none;fill-rule:nonzero;fill:rgb(1.960784%,8.627451%,30.196078%);fill-opacity:1;" d="M 184.25 102.71875 L 184.152344 102.625 L 179.679688 102.625 L 163.976562 121.96875 L 170.164062 121.96875 L 173.78125 117.015625 L 185.296875 117.015625 L 188.816406 121.96875 L 199 121.96875 Z M 175.589844 114.535156 L 179.679688 109.007812 L 183.675781 114.535156 Z M 175.589844 114.535156 "/>
<path style=" stroke:none;fill-rule:nonzero;fill:rgb(1.960784%,8.627451%,30.196078%);fill-opacity:1;" d="M 151.035156 112.726562 L 151.035156 119.398438 C 149.796875 120.160156 145.800781 120.0625 144.46875 120.0625 L 144.183594 120.0625 C 139.421875 120.0625 132.285156 117.871094 132.285156 112.152344 C 132.285156 106.433594 139.421875 104.433594 144.277344 104.433594 C 148.085938 104.433594 154.367188 104.433594 157.125 107.292969 L 157.316406 107.484375 L 159.695312 103.863281 L 159.410156 103.765625 C 154.839844 102.050781 148.179688 101.859375 144.5625 101.859375 L 144.46875 101.859375 C 139.738281 101.828125 135.042969 102.601562 130.574219 104.148438 C 125.625 105.957031 122.960938 108.816406 122.960938 112.25 C 122.960938 119.875 135.617188 122.730469 144.277344 122.730469 L 144.65625 122.730469 C 146.898438 122.78125 149.132812 122.558594 151.320312 122.066406 L 151.890625 121.875 L 159.886719 121.875 L 159.789062 112.820312 L 151.035156 112.820312 Z M 151.035156 112.726562 "/>
<path style=" stroke:none;fill-rule:nonzero;fill:rgb(1.960784%,8.627451%,30.196078%);fill-opacity:1;" d="M 81.65625 102.625 L 68.617188 115.488281 L 56.246094 102.625 L 51.390625 102.625 L 45.492188 121.96875 L 51.105469 121.96875 L 53.867188 109.769531 L 64.8125 121.96875 L 67.855469 121.96875 L 79.371094 109.960938 L 81.558594 121.96875 L 91.457031 121.96875 L 86.414062 102.625 Z M 81.65625 102.625 "/>
<path style=" stroke:none;fill-rule:nonzero;fill:rgb(1.960784%,8.627451%,30.196078%);fill-opacity:1;" d="M 105.734375 113.679688 L 118.011719 113.679688 L 118.011719 110.34375 L 105.925781 110.34375 L 105.925781 105.671875 L 118.199219 105.671875 L 118.199219 102.625 L 96.597656 102.625 L 96.597656 121.875 L 118.199219 121.875 L 118.199219 118.921875 L 105.734375 118.921875 Z M 105.734375 113.679688 "/>
<path style=" stroke:none;fill-rule:nonzero;fill:rgb(1.960784%,8.627451%,30.196078%);fill-opacity:1;" d="M 111.824219 94.238281 C 108.535156 91.578125 105.507812 88.609375 102.785156 85.375 C 101.9375 84.429688 101.144531 83.445312 100.402344 82.417969 C 101.1875 81.375 101.917969 80.296875 102.59375 79.179688 C 109.535156 68.125 113.257812 55.351562 113.347656 42.296875 C 113.253906 29.117188 109.605469 16.207031 102.785156 4.9375 C 101.925781 3.601562 101.070312 2.269531 100.117188 1.03125 L 99.546875 0.269531 L 98.976562 1.03125 C 98.023438 2.269531 97.167969 3.601562 96.3125 4.9375 C 89.503906 16.214844 85.851562 29.117188 85.746094 42.296875 C 85.835938 55.351562 89.5625 68.125 96.503906 79.179688 C 97.175781 80.296875 97.90625 81.375 98.691406 82.417969 C 97.949219 83.445312 97.15625 84.429688 96.3125 85.375 C 93.585938 88.609375 90.558594 91.578125 87.269531 94.238281 L 85.746094 95.476562 L 113.253906 95.476562 Z M 111.824219 94.238281 "/>
<path style=" stroke:none;fill-rule:nonzero;fill:rgb(1.960784%,8.627451%,30.196078%);fill-opacity:1;" d="M 79.941406 95.378906 L 81.085938 94.425781 C 81.847656 93.761719 82.605469 93.09375 83.464844 92.425781 L 83.558594 92.332031 C 77.339844 89.160156 71.933594 84.59375 67.761719 78.988281 C 59.035156 67.34375 56.304688 52.261719 60.386719 38.285156 C 64.46875 24.3125 74.890625 13.085938 88.507812 7.988281 C 88.703125 7.542969 88.960938 7.125 89.269531 6.75 C 89.839844 5.796875 90.316406 4.746094 90.980469 3.792969 C 65.382812 8.75 46.253906 28 46.253906 50.875 C 46.253906 67.359375 56.339844 82.703125 72.710938 91.566406 C 66.238281 91.089844 58.148438 90.425781 52.34375 89.660156 C 40.828125 88.042969 18.75 83.085938 18.75 83.085938 L 26.457031 95.378906 Z M 79.941406 95.378906 "/>
</g>
</svg>
